<?xml version="1.0" encoding="utf-8" standalone="no"?>
<!DOCTYPE svg PUBLIC "-//W3C//DTD SVG 1.0//EN" "http://www.w3.org/TR/SVG/DTD/svg11.dtd" >
<svg version="1.1" baseProfile="full"  width="791.3385" height="791.3385" viewBox="0 0 569.7638 569.7638" preserveAspectRatio="xMidYMid" xmlns="http://www.w3.org/2000/svg" >

<g lengthAdjust="spacingAndGlyphs" xml:space='preserve' >
<g  transform="translate(8.50,8.50)" >
<path d="
M0.0 0.0
L0.0 552.75
L552.75 552.75
L552.75 0.0
Z
" fill="rgb(224,187,108)" fill-rule="nonzero" />
<line x1="63.77" y1="63.77" x2="63.77" y2="488.97" fill="none" stroke="black" stroke-width="5.66px" stroke-linecap="square" />
<line x1="148.81" y1="63.77" x2="148.81" y2="488.97" fill="none" stroke="black" stroke-width="1.98px" stroke-linecap="butt" />
<line x1="233.85" y1="63.77" x2="233.85" y2="488.97" fill="none" stroke="black" stroke-width="1.98px" stroke-linecap="butt" />
<line x1="318.89" y1="63.77" x2="318.89" y2="488.97" fill="none" stroke="black" stroke-width="1.98px" stroke-linecap="butt" />
<line x1="403.93" y1="63.77" x2="403.93" y2="488.97" fill="none" stroke="black" stroke-width="1.98px" stroke-linecap="butt" />
<line x1="488.97" y1="63.77" x2="488.97" y2="488.97" fill="none" stroke="black" stroke-width="5.66px" stroke-linecap="square" />
<line x1="63.77" y1="63.77" x2="488.97" y2="63.77" fill="none" stroke="black" stroke-width="5.66px" stroke-linecap="square" />
<line x1="63.77" y1="148.81" x2="488.97" y2="148.81" fill="none" stroke="black" stroke-width="1.98px" stroke-linecap="butt" />
<line x1="63.77" y1="233.85" x2="488.97" y2="233.85" fill="none" stroke="black" stroke-width="1.98px" stroke-linecap="butt" />
<line x1="63.77" y1="318.89" x2="488.97" y2="318.89" fill="none" stroke="black" stroke-width="1.98px" stroke-linecap="butt" />
<line x1="63.77" y1="403.93" x2="488.97" y2="403.93" fill="none" stroke="black" stroke-width="1.98px" stroke-linecap="butt" />
<line x1="63.77" y1="488.97" x2="488.97" y2="488.97" fill="none" stroke="black" stroke-width="5.66px" stroke-linecap="square" />
<circle cx="148.81" cy="233.85" r="43.07" fill="black"/>
<circle cx="148.81" cy="403.93" r="43.07" fill="black"/>
<circle cx="233.85" cy="148.81" r="43.07" fill="black"/>
<circle cx="233.85" cy="233.85" r="42.09" fill="white"/>
<circle cx="233.85" cy="233.85" r="42.09" fill="none" stroke="black" stroke-width="1.98px"/>
<circle cx="233.85" cy="318.89" r="43.07" fill="black"/>
<circle cx="233.85" cy="403.93" r="42.09" fill="white"/>
<circle cx="233.85" cy="403.93" r="42.09" fill="none" stroke="black" stroke-width="1.98px"/>
<circle cx="318.89" cy="148.81" r="42.09" fill="white"/>
<circle cx="318.89" cy="148.81" r="42.09" fill="none" stroke="black" stroke-width="1.98px"/>
<circle cx="318.89" cy="318.89" r="42.09" fill="white"/>
<circle cx="318.89" cy="318.89" r="42.09" fill="none" stroke="black" stroke-width="1.98px"/>
<circle cx="403.93" cy="233.85" r="42.09" fill="white"/>
<circle cx="403.93" cy="233.85" r="42.09" fill="none" stroke="black" stroke-width="1.98px"/>
</g>
</g>
</svg>
